<svg id="Layer_1" data-name="Layer 1" xmlns="http://www.w3.org/2000/svg" viewBox="0 0 1880.78 2224.97"><defs><style>.cls-1{fill:#f3f5f5;}</style></defs><polygon class="cls-1" points="1880.78 542.93 1645.68 678.69 1410.57 814.4 1175.47 678.69 940.37 542.93 705.26 678.69 470.21 814.4 470.21 1357.33 235.1 1493.08 0 1628.79 0 542.93 235.1 407.23 470.21 271.47 705.26 135.76 940.37 0 1175.47 135.76 1410.57 271.47 1645.68 407.23 1880.78 542.93"/><polygon class="cls-1" points="1204.39 1754.81 1204.29 1754.81 1204.34 1754.71 1204.39 1754.81"/><polygon class="cls-1" points="1475.86 1284.61 1475.81 1284.7 1475.76 1284.61 1475.86 1284.61"/><polygon class="cls-1" points="1747.32 1754.81 1611.56 1989.86 1475.86 2224.97 1475.76 2224.82 1475.76 2224.97 389.89 2224.97 254.13 1989.86 118.43 1754.81 1204.39 1754.81 1204.34 1754.71 1068.63 1519.71 932.92 1284.61 797.16 1049.5 661.46 814.4 1204.39 814.4 1340.1 1049.5 1475.86 1284.61 1475.76 1284.61 1475.81 1284.7 1611.46 1519.71 1747.22 1754.81 1747.32 1754.81"/></svg>